<svg xmlns="http://www.w3.org/2000/svg" viewBox="0 -0.5 100 100" shape-rendering="crispEdges">
<metadata>Made with Pixels to Svg https://codepen.io/shshaw/pen/XbxvNj</metadata>
<path stroke="#000000" d="M40 27h20M34 28h32M30 29h11M59 29h11M27 30h8M65 30h8M25 31h6M69 31h6M23 32h5M42 32h16M72 32h5M21 33h5M34 33h10M56 33h10M74 33h5M19 34h5M32 34h7M61 34h7M76 34h5M18 35h4M29 35h3M67 35h4M78 35h4M17 36h3M26 36h5M69 36h5M80 36h3M17 37h2M25 37h4M71 37h4M81 37h2M16 38h3M25 38h2M73 38h2M81 38h3M16 39h2M24 39h2M73 39h4M82 39h2M16 40h2M24 40h2M74 40h3M82 40h2M16 41h2M24 41h2M74 41h3M82 41h2M16 42h2M24 42h2M74 42h3M82 42h2M16 43h2M24 43h3M72 43h5M82 43h2M16 44h2M24 44h4M72 44h5M81 44h3M16 45h3M26 45h5M69 45h5M80 45h4M16 46h4M28 46h4M68 46h4M80 46h4M16 47h6M30 47h6M64 47h6M78 47h6M16 48h2M19 48h5M34 48h2M56 48h10M76 48h5M82 48h2M16 49h2M21 49h5M47 49h6M55 49h7M74 49h5M82 49h2M16 50h2M23 50h5M72 50h5M82 50h2M16 51h2M25 51h6M69 51h6M82 51h2M16 52h2M27 52h2M65 52h8M82 52h2M16 53h3M39 53h2M59 53h11M81 53h3M17 54h2M38 54h28M81 54h2M17 55h3M40 55h20M80 55h3M18 56h3M78 56h4M19 57h2M76 57h5M74 58h5M27 59h1M72 59h5M27 60h4M69 60h6M27 61h8M65 61h8M30 62h11M59 62h11M34 63h32M40 64h20" />
<path stroke="#fff200" d="M41 29h7M55 29h4M40 30h4M53 30h12M31 31h5M40 31h26M30 32h12M58 32h14M27 33h7M66 33h8M24 34h3M29 34h3M68 34h4M22 35h1M24 35h5M71 35h7M20 36h6M74 36h5M19 37h6M75 37h6M19 38h6M75 38h4M18 39h2M21 39h3M78 39h4M19 40h1M21 40h2M78 40h4M19 41h1M21 41h2M78 41h3M19 42h1M21 42h2M78 42h3M19 43h1M22 43h2M78 43h1M80 43h2M18 44h3M22 44h2M79 44h2M19 45h7M74 45h6M20 46h8M72 46h1M76 46h4M22 47h8M70 47h3M75 47h3M24 48h10M66 48h4M71 48h5M26 49h2M30 49h3M62 49h12M28 50h3M45 50h5M54 50h9M65 50h7M45 51h16M66 51h3M42 52h20M41 53h7M52 53h7" />
<path stroke="#fbff00" d="M48 29h4M38 30h2M44 30h9M36 31h4M27 34h2M72 34h2M79 38h2M20 39h1M20 40h1M20 41h1M20 42h1M20 43h2M79 43h1M21 44h1M78 44h1M73 46h3M73 47h2M70 48h1M44 50h1M50 50h4M63 50h2M42 51h3M61 51h5M41 52h1" />
<path stroke="#d9b500" d="M52 29h3M35 30h3M66 31h3M28 32h2M26 33h1M74 34h2M23 35h1M79 36h1M18 40h1M77 40h1M18 41h1M77 41h1M18 42h1M81 42h1M18 43h1M77 43h1M28 49h2M62 52h3M48 53h4" />
<path stroke="#2e2e2e" d="M44 33h2M48 33h5M55 33h1M39 34h1M41 34h11M53 34h8M35 35h5M42 35h19M63 35h4M31 36h3M35 36h24M62 36h7M29 37h27M61 37h7M70 37h1M27 38h28M59 38h9M69 38h4M27 39h26M57 39h16M29 40h22M56 40h18M26 41h24M55 41h17M26 42h22M54 42h20M27 43h21M54 43h18M28 44h17M53 44h19M31 45h12M53 45h16M35 46h6M53 46h15M36 47h2M51 47h13M18 48h1M49 48h5M55 48h1M81 48h1M18 49h3M79 49h3M18 50h5M77 50h5M18 51h1M20 51h5M75 51h5M18 52h1M20 52h7M73 52h7M81 52h1M19 53h8M70 53h11M19 54h5M66 54h12M80 54h1M20 55h2M36 55h4M60 55h20M33 56h45M31 57h11M45 57h4M51 57h25M29 58h22M53 58h21M28 59h11M41 59h24M69 59h3M31 60h38M35 61h11M48 61h17M41 62h14M56 62h3" />
<path stroke="#4d4d4d" d="M46 33h2M53 33h2M40 34h1M52 34h1M32 35h3M40 35h2M34 36h1M68 37h2M68 38h1M26 39h1M26 40h3M72 41h2M32 46h3M54 48h1M53 49h2" />
<path stroke="#464646" d="M61 35h1M59 36h1M56 37h1M55 38h1M53 39h1" />
<path stroke="#b4b4b4" d="M62 35h1M60 36h2M57 37h4M56 38h3M54 39h3M51 40h5M51 41h4M53 42h1M53 43h1" />
<path stroke="#fcd200" d="M77 39h1M23 40h1M23 41h1M81 41h1M23 42h1M77 42h1M77 44h1" />
<path stroke="#ff000d" d="M50 41h1M48 42h5M48 43h5M45 44h8M43 45h6M43 46h6M38 47h10M36 48h10M35 49h9M31 50h2M34 50h7M31 51h10M29 52h10M27 53h10M24 54h11M22 55h10M21 56h9M21 57h7M19 58h7M19 59h7M18 60h5M18 61h3" />
<path stroke="#ba000c" d="M49 45h4M41 46h2M49 46h1M33 49h2M33 50h1" />
<path stroke="#990030" d="M50 46h3M48 47h3M46 48h3M44 49h3M41 50h3M41 51h1M39 52h2M37 53h2M35 54h3M32 55h4M30 56h3M28 57h3M26 58h3M26 59h1M23 60h4M21 61h3M19 62h3" />
<path stroke="#262626" d="M19 51h1M80 51h2M19 52h1M80 52h1M78 54h2M42 57h3M49 57h2M51 58h2M39 59h2M65 59h4M46 61h2M55 62h1" />
</svg>
